<?xml version="1.0" standalone="no"?>
<!DOCTYPE svg PUBLIC "-//W3C//DTD SVG 20010904//EN"
 "http://www.w3.org/TR/2001/REC-SVG-20010904/DTD/svg10.dtd">
<svg version="1.0" xmlns="http://www.w3.org/2000/svg"
 width="1181.000000pt" height="1181.000000pt" viewBox="0 0 1181.000000 1181.000000"
 preserveAspectRatio="xMidYMid meet">

<g transform="translate(0.000000,1181.000000) scale(0.100000,-0.100000)"
fill="#000000" stroke="none">
<path d="M3327 8703 c-4 -3 -7 -523 -7 -1155 l0 -1148 1155 0 1155 0 0 1155 0
1155 -1148 0 c-632 0 -1152 -3 -1155 -7z"/>
<path d="M6210 7690 c0 -33 3 -40 20 -40 19 0 20 -7 20 -180 l0 -180 63 -2
c34 -1 81 -2 104 -1 142 4 184 206 61 284 -25 15 -45 19 -85 16 l-53 -4 0 74
0 73 -65 0 -65 0 0 -40z m230 -198 c47 -38 17 -132 -42 -132 -44 0 -58 18 -58
73 0 29 5 58 12 65 18 18 63 15 88 -6z"/>
<path d="M6582 7693 c2 -31 7 -39 26 -41 22 -3 23 -4 20 -145 -3 -139 -4 -142
-25 -145 -19 -3 -23 -10 -23 -38 l0 -34 90 0 90 0 0 35 c0 28 -4 35 -20 35
-19 0 -20 7 -20 185 l0 185 -71 0 -70 0 3 -37z"/>
<path d="M7480 7690 c0 -33 3 -40 20 -40 19 0 20 -7 20 -145 0 -138 -1 -145
-20 -145 -16 0 -20 -7 -20 -35 l0 -35 80 0 80 0 0 34 c0 21 -6 36 -15 40 -8 3
-15 15 -15 26 0 14 7 20 24 20 16 0 36 -17 70 -60 44 -55 50 -60 87 -60 39 0
39 0 39 40 0 35 -3 40 -24 40 -15 0 -33 12 -50 35 l-27 35 23 29 c14 18 35 31
53 33 27 3 30 7 33 41 l3 37 -80 0 -80 0 -3 -47 c-3 -46 -4 -48 -35 -51 l-33
-3 0 125 0 126 -65 0 -65 0 0 -40z"/>
<path d="M5928 7684 c-57 -34 -58 -36 -58 -79 0 -49 8 -54 46 -29 l25 17 -3
-114 c-3 -110 -4 -114 -25 -117 -19 -3 -23 -10 -23 -38 l0 -34 95 0 95 0 0 34
c0 28 -4 35 -22 38 -23 3 -23 5 -26 181 -2 176 -3 177 -25 176 -12 0 -48 -16
-79 -35z"/>
<path d="M6880 7568 c-55 -38 -75 -73 -75 -133 0 -92 60 -150 155 -150 63 0
95 16 134 68 28 38 28 126 0 164 -35 48 -82 73 -134 73 -32 0 -57 -7 -80 -22z
m127 -80 c29 -27 30 -67 2 -102 -41 -53 -119 -20 -119 51 0 65 69 96 117 51z"/>
<path d="M7230 7572 c-39 -21 -80 -89 -80 -134 0 -99 95 -172 197 -153 40 7
119 77 108 94 -3 6 -21 13 -39 17 -27 4 -39 1 -55 -15 -45 -45 -121 -11 -121
54 0 59 69 95 116 60 10 -8 36 -15 57 -15 l37 0 0 44 0 44 -42 6 c-112 17
-143 17 -178 -2z"/>
<path d="M6520 7045 c0 -28 4 -35 20 -35 19 0 20 -7 20 -145 0 -138 -1 -145
-20 -145 -17 0 -20 -7 -20 -40 l0 -40 85 0 85 0 0 40 c0 33 -3 40 -20 40 -18
0 -20 7 -20 54 0 45 4 58 22 70 28 20 43 20 62 0 12 -12 16 -37 16 -110 l0
-94 65 0 65 0 0 40 c0 33 -3 40 -20 40 -18 0 -20 7 -20 70 0 38 -5 81 -12 95
-23 50 -109 72 -156 39 l-22 -15 0 85 0 86 -65 0 -65 0 0 -35z"/>
<path d="M7600 7046 c0 -28 4 -35 23 -38 21 -3 22 -6 25 -145 3 -141 2 -142
-20 -145 -19 -2 -24 -10 -26 -40 l-3 -38 90 0 91 0 0 30 c0 17 1 33 3 38 1 4
-8 8 -20 10 -23 3 -23 4 -23 183 l0 179 -70 0 -70 0 0 -34z"/>
<path d="M5950 6943 c-8 -3 -27 -17 -42 -31 -65 -60 -15 -138 100 -157 45 -7
65 -30 41 -46 -24 -15 -58 -10 -79 11 -12 12 -33 20 -55 20 -34 0 -35 -1 -35
-40 0 -32 4 -40 19 -40 10 0 35 -7 54 -15 46 -19 77 -19 127 1 41 17 70 55 70
92 0 40 -37 70 -106 85 -74 17 -79 20 -71 42 9 22 59 19 91 -6 15 -12 37 -19
53 -17 24 3 28 8 31 41 3 31 0 37 -16 37 -11 0 -36 7 -55 15 -36 15 -98 19
-127 8z"/>
<path d="M6260 6918 c-148 -99 -38 -329 133 -278 44 13 97 59 97 84 0 9 -14
19 -32 24 -28 7 -38 5 -61 -15 -35 -28 -57 -29 -91 -2 -32 25 -37 86 -8 112
23 21 85 22 102 2 7 -9 29 -15 51 -15 l39 0 0 44 0 44 -42 6 c-123 19 -152 18
-188 -6z"/>
<path d="M6980 6918 c-92 -63 -91 -191 1 -260 62 -47 169 -27 214 40 49 72 26
177 -47 222 -47 28 -125 27 -168 -2z m126 -66 c22 -14 35 -53 29 -83 -13 -56
-78 -74 -119 -33 -21 20 -20 83 1 106 16 18 68 24 89 10z"/>
<path d="M7329 6917 c-68 -45 -90 -143 -46 -207 49 -72 115 -95 192 -65 117
44 131 209 23 275 -47 28 -125 27 -169 -3z m135 -73 c58 -57 1 -155 -73 -124
-73 30 -53 140 25 140 18 0 40 -7 48 -16z"/>
<path d="M5870 5033 l0 -1153 1153 0 1152 0 -2 1150 -3 1150 -1150 3 -1150 2
0 -1152z"/>
</g>
</svg>
